<svg xmlns="http://www.w3.org/2000/svg" width="164" height="52" viewBox="0 0 164 52">
    <g fill="none" fill-rule="evenodd" transform="translate(0 .1)">
        <rect width="163.02" height="51.48" fill="#031942" rx="6.864"/>
        <path fill="#FFF" fill-rule="nonzero" d="M52.598 39.474l1.03-3.077h4.692l1.036 3.077h2.413l-4.4-12.48h-2.79l-4.395 12.48h2.414zm5.112-4.893h-3.473l1.688-5.028h.097l1.688 5.028zm7.383 8.403v-4.985h.092c.347.683 1.072 1.64 2.681 1.64 2.206 0 3.857-1.75 3.857-4.833 0-3.12-1.7-4.814-3.863-4.814-1.651 0-2.34.993-2.675 1.67h-.128v-1.548h-2.17v12.87h2.206zm2.158-5.155c-1.408 0-2.2-1.22-2.2-3.035 0-1.816.78-2.992 2.2-2.992 1.468 0 2.224 1.25 2.224 2.992 0 1.755-.768 3.035-2.224 3.035zm8.132 5.155v-4.985h.092c.347.683 1.072 1.64 2.681 1.64 2.206 0 3.857-1.75 3.857-4.833 0-3.12-1.7-4.814-3.863-4.814-1.652 0-2.34.993-2.675 1.67h-.128v-1.548h-2.17v12.87h2.206zm2.158-5.155c-1.408 0-2.2-1.22-2.2-3.035 0-1.816.78-2.992 2.2-2.992 1.468 0 2.224 1.25 2.224 2.992 0 1.755-.768 3.035-2.224 3.035zm14.248 1.834c2.992 0 4.729-1.493 4.735-3.693-.006-2.163-1.792-3.15-3.669-3.595l-1.17-.293c-1.023-.243-2.132-.676-2.12-1.718.006-.939.847-1.627 2.26-1.627 1.347 0 2.237.627 2.353 1.688h2.175c-.043-2.109-1.84-3.602-4.497-3.602-2.62 0-4.589 1.475-4.583 3.681 0 1.792 1.274 2.821 3.328 3.352l1.42.365c1.346.341 2.236.762 2.242 1.73-.006 1.067-1.018 1.78-2.492 1.78-1.414 0-2.511-.634-2.602-1.944h-2.225c.092 2.48 1.938 3.876 4.845 3.876zm9.766-.061c.627-.018 1.06-.14 1.298-.22l-.372-1.724c-.122.03-.372.085-.646.085-.554 0-1-.195-1-1.084V31.82h1.847v-1.706h-1.846v-2.242H98.63v2.242H97.3v1.706h1.329v5.204c-.012 1.761 1.267 2.627 2.925 2.578zm6.53.055c2.742 0 4.485-1.932 4.485-4.826 0-2.901-1.743-4.839-4.485-4.839s-4.485 1.938-4.485 4.839c0 2.894 1.743 4.826 4.485 4.826zm.012-1.767c-1.517 0-2.26-1.353-2.26-3.066 0-1.712.743-3.083 2.26-3.083 1.493 0 2.236 1.371 2.236 3.083 0 1.713-.743 3.066-2.236 3.066zm8.114 1.584v-5.503c0-1.188.896-2.029 2.109-2.029.372 0 .835.067 1.024.128v-2.03c-.201-.036-.549-.06-.793-.06-1.072 0-1.968.61-2.31 1.694h-.097v-1.56h-2.138v9.36h2.205zm7.926.183c2.182 0 3.68-1.067 4.07-2.694l-2.06-.231c-.298.792-1.029 1.206-1.98 1.206-1.425 0-2.37-.938-2.388-2.54h6.52v-.677c0-3.285-1.974-4.729-4.278-4.729-2.681 0-4.43 1.968-4.43 4.857 0 2.937 1.725 4.808 4.546 4.808zm2.047-5.747h-4.4c.068-1.194.951-2.2 2.268-2.2 1.267 0 2.12.927 2.132 2.2zM54.337 20.143c1.757 0 3.19-1.057 3.515-2.849h-1.058c-.256 1.211-1.297 1.86-2.457 1.86-1.587 0-2.833-1.229-2.833-3.498 0-2.27 1.246-3.498 2.833-3.498 1.16 0 2.2.649 2.457 1.86h1.058c-.325-1.792-1.758-2.85-3.515-2.85-2.235 0-3.856 1.724-3.856 4.488 0 2.764 1.62 4.487 3.856 4.487zm7.403.017c1.774 0 2.969-1.347 2.969-3.378 0-2.047-1.195-3.395-2.97-3.395-1.774 0-2.968 1.348-2.968 3.395 0 2.03 1.194 3.378 2.969 3.378zm0-.904c-1.348 0-1.962-1.16-1.962-2.474 0-1.314.614-2.491 1.962-2.491 1.348 0 1.962 1.177 1.962 2.491s-.614 2.474-1.962 2.474zm5.168.768v-4.095c0-.96.7-1.638 1.484-1.638.764 0 1.297.5 1.297 1.246v4.487h1.024v-4.266c0-.844.529-1.467 1.45-1.467.717 0 1.331.38 1.331 1.348v4.385h1.007v-4.385c0-1.54-.828-2.252-1.997-2.252-.938 0-1.625.43-1.962 1.109h-.068c-.324-.7-.896-1.11-1.757-1.11-.854 0-1.485.41-1.758 1.11h-.085v-1.024H65.9v6.552h1.007zm9.604-7.644c.393 0 .717-.307.717-.682 0-.376-.324-.683-.717-.683-.392 0-.716.307-.716.683 0 .375.324.682.716.682zm.495 7.644v-6.552H76v6.552h1.007zm2.506 0v-3.941c0-1.144.708-1.792 1.672-1.792.934 0 1.502.61 1.502 1.638v4.095h1.007v-4.163c0-1.672-.892-2.474-2.219-2.474-.99 0-1.603.443-1.91 1.109h-.086v-1.024h-.972v6.552h1.006zm8.325 2.593c1.57 0 2.832-.716 2.832-2.405v-6.74h-.972v1.04h-.103c-.222-.34-.631-1.125-1.91-1.125-1.656 0-2.8 1.314-2.8 3.327 0 2.047 1.195 3.208 2.782 3.208 1.28 0 1.69-.751 1.911-1.11h.085v1.331c0 1.092-.767 1.587-1.825 1.587-1.19 0-1.608-.627-1.877-.99l-.802.564c.41.686 1.216 1.313 2.679 1.313zm-.034-3.6c-1.263 0-1.911-.955-1.911-2.32 0-1.331.63-2.406 1.91-2.406 1.23 0 1.877.99 1.877 2.406 0 1.45-.665 2.32-1.876 2.32zm9.602 1.143c1.523 0 2.56-.831 2.56-1.962 0-.913-.572-1.488-1.741-1.774l-.973-.24c-.776-.191-1.126-.451-1.126-.955 0-.563.597-.972 1.4-.972.878 0 1.24.486 1.416.938l.904-.256c-.316-.93-1.024-1.552-2.32-1.552-1.383 0-2.406.785-2.406 1.894 0 .904.537 1.51 1.74 1.791l1.092.256c.661.154.972.47.972.922 0 .563-.597 1.023-1.535 1.023-.823 0-1.34-.354-1.519-1.058l-.955.24c.234 1.113 1.152 1.705 2.49 1.705zm6.396 0c1.775 0 2.97-1.347 2.97-3.378 0-2.047-1.195-3.395-2.97-3.395-1.774 0-2.968 1.348-2.968 3.395 0 2.03 1.194 3.378 2.968 3.378zm0-.904c-1.348 0-1.962-1.16-1.962-2.474 0-1.314.614-2.491 1.962-2.491 1.348 0 1.963 1.177 1.963 2.491s-.615 2.474-1.963 2.474zm6.823.904c1.775 0 2.97-1.347 2.97-3.378 0-2.047-1.195-3.395-2.97-3.395-1.774 0-2.968 1.348-2.968 3.395 0 2.03 1.194 3.378 2.968 3.378zm0-.904c-1.347 0-1.962-1.16-1.962-2.474 0-1.314.615-2.491 1.962-2.491 1.348 0 1.963 1.177 1.963 2.491s-.615 2.474-1.963 2.474zm5.168.768v-3.941c0-1.144.709-1.792 1.673-1.792.934 0 1.501.61 1.501 1.638v4.095h1.007v-4.163c0-1.672-.892-2.474-2.218-2.474-.99 0-1.604.443-1.911 1.109h-.086v-1.024h-.972v6.552h1.006zm11.377.136c1.775 0 2.97-1.347 2.97-3.378 0-2.047-1.195-3.395-2.97-3.395-1.774 0-2.969 1.348-2.969 3.395 0 2.03 1.195 3.378 2.97 3.378zm0-.904c-1.348 0-1.962-1.16-1.962-2.474 0-1.314.614-2.491 1.962-2.491 1.348 0 1.962 1.177 1.962 2.491s-.614 2.474-1.962 2.474zm5.168.768v-3.941c0-1.144.708-1.792 1.672-1.792.935 0 1.502.61 1.502 1.638v4.095h1.007v-4.163c0-1.672-.892-2.474-2.219-2.474-.99 0-1.603.443-1.91 1.109h-.086v-1.024h-.972v6.552h1.006z"/>
        <g>
            <path d="M0 0H27.456V27.456H0z" transform="translate(13.728 12.012)"/>
            <path fill="#FFF" d="M17.87 7.748l.289.017c.725.02 2.787.269 4.118 2.091-.107.06-2.457 1.358-2.432 4.024.03 3.196 2.977 4.252 3.013 4.264-.018.074-.462 1.524-1.567 2.997-.923 1.296-1.89 2.564-3.427 2.587-1.492.032-1.994-.825-3.705-.825-1.727 0-2.262.802-3.693.857-1.463.05-2.58-1.384-3.537-2.669-1.913-2.623-3.401-7.392-1.405-10.638.967-1.591 2.73-2.616 4.615-2.644 1.465-.028 2.824.93 3.724.93.883 0 2.563-1.145 4.296-.974zm-.343-6.604c.146 1.248-.38 2.478-1.15 3.383-.804.89-2.089 1.57-3.34 1.483-.164-1.201.47-2.479 1.18-3.258.802-.884 2.195-1.562 3.31-1.608z" transform="translate(13.728 12.012)"/>
        </g>
    </g>
</svg>
