<svg xmlns="http://www.w3.org/2000/svg" width="164" height="52" viewBox="0 0 164 52">
    <g fill="none" fill-rule="evenodd" transform="translate(.1)">
        <rect width="163.02" height="51.48" fill="#031942" rx="6.864"/>
        <path fill="#FFF" fill-rule="nonzero" d="M56.461 39.645c3.09 0 5.302-1.987 5.302-5.204v-1.5h-5.064v1.768h2.876c-.037 1.78-1.225 2.906-3.102 2.906-2.09 0-3.522-1.566-3.522-4.393 0-2.81 1.456-4.37 3.473-4.37 1.506 0 2.53.805 2.932 2.127h2.303c-.384-2.45-2.505-4.156-5.265-4.156-3.266 0-5.716 2.401-5.716 6.423 0 3.949 2.34 6.399 5.783 6.399zm11.046.012c2.742 0 4.485-1.932 4.485-4.826 0-2.901-1.743-4.839-4.485-4.839-2.743 0-4.485 1.938-4.485 4.839 0 2.894 1.742 4.826 4.485 4.826zm.012-1.767c-1.518 0-2.261-1.353-2.261-3.066 0-1.712.743-3.083 2.26-3.083 1.494 0 2.237 1.371 2.237 3.083 0 1.713-.743 3.066-2.236 3.066zm9.991 1.767c2.742 0 4.485-1.932 4.485-4.826 0-2.901-1.743-4.839-4.485-4.839s-4.485 1.938-4.485 4.839c0 2.894 1.743 4.826 4.485 4.826zm.012-1.767c-1.517 0-2.26-1.353-2.26-3.066 0-1.712.743-3.083 2.26-3.083 1.493 0 2.237 1.371 2.237 3.083 0 1.713-.744 3.066-2.237 3.066zm9.98 5.252c2.528 0 4.393-1.157 4.393-3.516v-9.512h-2.176v1.548h-.121c-.336-.677-1.036-1.67-2.688-1.67-2.163 0-3.863 1.694-3.863 4.772 0 3.053 1.7 4.576 3.857 4.576 1.603 0 2.352-.86 2.694-1.548h.11v1.773c0 1.341-.915 1.908-2.17 1.908-1.329 0-1.914-.628-2.182-1.14l-1.986.482c.402 1.273 1.749 2.327 4.131 2.327zm.018-5.533c-1.457 0-2.225-1.133-2.225-2.858 0-1.7.756-2.949 2.225-2.949 1.42 0 2.2 1.176 2.2 2.95 0 1.785-.793 2.857-2.2 2.857zm8.419 1.865v-12.48h-2.206v12.48h2.206zm5.981.183c2.182 0 3.681-1.067 4.071-2.694l-2.06-.231c-.298.792-1.03 1.206-1.98 1.206-1.426 0-2.37-.938-2.389-2.54h6.52v-.677c0-3.285-1.974-4.729-4.277-4.729-2.682 0-4.43 1.968-4.43 4.857 0 2.937 1.724 4.808 4.545 4.808zm2.048-5.747h-4.4c.067-1.194.95-2.2 2.267-2.2 1.268 0 2.12.927 2.133 2.2zm9.739 5.564v-4.217h2.389c2.882 0 4.43-1.73 4.43-4.131 0-2.383-1.53-4.132-4.4-4.132h-4.68v12.48h2.26zm2.084-6.075h-2.084v-4.516h2.072c1.694 0 2.443.914 2.443 2.243 0 1.328-.75 2.273-2.431 2.273zm8.376 6.075v-12.48h-2.205v12.48h2.205zm4.532.189c1.468 0 2.346-.689 2.748-1.475h.073v1.286h2.12V33.21c0-2.474-2.016-3.218-3.802-3.218-1.968 0-3.48.878-3.967 2.584l2.06.292c.22-.64.84-1.188 1.92-1.188 1.023 0 1.584.524 1.584 1.444v.037c0 .634-.664.664-2.316.84-1.816.196-3.552.738-3.552 2.847 0 1.84 1.346 2.815 3.132 2.815zm.573-1.621c-.92 0-1.579-.42-1.579-1.231 0-.847.738-1.2 1.725-1.34.579-.08 1.737-.226 2.023-.458v1.103c0 1.042-.841 1.926-2.17 1.926zm7.194 4.924c1.718 0 2.712-.89 3.242-2.359l3.76-10.48-2.359-.013-2.163 7.069h-.097l-2.158-7.069h-2.34l3.395 9.555-.19.506c-.42 1.036-1.054 1.115-2.016.84l-.512 1.713c.298.128.835.238 1.438.238zM54.337 20.143c1.757 0 3.19-1.057 3.515-2.849h-1.058c-.256 1.211-1.297 1.86-2.457 1.86-1.587 0-2.833-1.229-2.833-3.498 0-2.27 1.246-3.498 2.833-3.498 1.16 0 2.2.649 2.457 1.86h1.058c-.325-1.792-1.758-2.85-3.515-2.85-2.235 0-3.856 1.724-3.856 4.488 0 2.764 1.62 4.487 3.856 4.487zm7.403.017c1.774 0 2.969-1.347 2.969-3.378 0-2.047-1.195-3.395-2.97-3.395-1.774 0-2.968 1.348-2.968 3.395 0 2.03 1.194 3.378 2.969 3.378zm0-.904c-1.348 0-1.962-1.16-1.962-2.474 0-1.314.614-2.491 1.962-2.491 1.348 0 1.962 1.177 1.962 2.491s-.614 2.474-1.962 2.474zm5.168.768v-4.095c0-.96.7-1.638 1.484-1.638.764 0 1.297.5 1.297 1.246v4.487h1.024v-4.266c0-.844.529-1.467 1.45-1.467.717 0 1.331.38 1.331 1.348v4.385h1.007v-4.385c0-1.54-.828-2.252-1.997-2.252-.938 0-1.625.43-1.962 1.109h-.068c-.324-.7-.896-1.11-1.757-1.11-.854 0-1.485.41-1.758 1.11h-.085v-1.024H65.9v6.552h1.007zm9.604-7.644c.393 0 .717-.307.717-.682 0-.376-.324-.683-.717-.683-.392 0-.716.307-.716.683 0 .375.324.682.716.682zm.495 7.644v-6.552H76v6.552h1.007zm2.506 0v-3.941c0-1.144.708-1.792 1.672-1.792.934 0 1.502.61 1.502 1.638v4.095h1.007v-4.163c0-1.672-.892-2.474-2.219-2.474-.99 0-1.603.443-1.91 1.109h-.086v-1.024h-.972v6.552h1.006zm8.325 2.593c1.57 0 2.832-.716 2.832-2.405v-6.74h-.972v1.04h-.103c-.222-.34-.631-1.125-1.91-1.125-1.656 0-2.8 1.314-2.8 3.327 0 2.047 1.195 3.208 2.782 3.208 1.28 0 1.69-.751 1.911-1.11h.085v1.331c0 1.092-.767 1.587-1.825 1.587-1.19 0-1.608-.627-1.877-.99l-.802.564c.41.686 1.216 1.313 2.679 1.313zm-.034-3.6c-1.263 0-1.911-.955-1.911-2.32 0-1.331.63-2.406 1.91-2.406 1.23 0 1.877.99 1.877 2.406 0 1.45-.665 2.32-1.876 2.32zm9.602 1.143c1.523 0 2.56-.831 2.56-1.962 0-.913-.572-1.488-1.741-1.774l-.973-.24c-.776-.191-1.126-.451-1.126-.955 0-.563.597-.972 1.4-.972.878 0 1.24.486 1.416.938l.904-.256c-.316-.93-1.024-1.552-2.32-1.552-1.383 0-2.406.785-2.406 1.894 0 .904.537 1.51 1.74 1.791l1.092.256c.661.154.972.47.972.922 0 .563-.597 1.023-1.535 1.023-.823 0-1.34-.354-1.519-1.058l-.955.24c.234 1.113 1.152 1.705 2.49 1.705zm6.396 0c1.775 0 2.97-1.347 2.97-3.378 0-2.047-1.195-3.395-2.97-3.395-1.774 0-2.968 1.348-2.968 3.395 0 2.03 1.194 3.378 2.968 3.378zm0-.904c-1.348 0-1.962-1.16-1.962-2.474 0-1.314.614-2.491 1.962-2.491 1.348 0 1.963 1.177 1.963 2.491s-.615 2.474-1.963 2.474zm6.823.904c1.775 0 2.97-1.347 2.97-3.378 0-2.047-1.195-3.395-2.97-3.395-1.774 0-2.968 1.348-2.968 3.395 0 2.03 1.194 3.378 2.968 3.378zm0-.904c-1.347 0-1.962-1.16-1.962-2.474 0-1.314.615-2.491 1.962-2.491 1.348 0 1.963 1.177 1.963 2.491s-.615 2.474-1.963 2.474zm5.168.768v-3.941c0-1.144.709-1.792 1.673-1.792.934 0 1.501.61 1.501 1.638v4.095h1.007v-4.163c0-1.672-.892-2.474-2.218-2.474-.99 0-1.604.443-1.911 1.109h-.086v-1.024h-.972v6.552h1.006zm11.377.136c1.775 0 2.97-1.347 2.97-3.378 0-2.047-1.195-3.395-2.97-3.395-1.774 0-2.969 1.348-2.969 3.395 0 2.03 1.195 3.378 2.97 3.378zm0-.904c-1.348 0-1.962-1.16-1.962-2.474 0-1.314.614-2.491 1.962-2.491 1.348 0 1.962 1.177 1.962 2.491s-.614 2.474-1.962 2.474zm5.168.768v-3.941c0-1.144.708-1.792 1.672-1.792.935 0 1.502.61 1.502 1.638v4.095h1.007v-4.163c0-1.672-.892-2.474-2.219-2.474-.99 0-1.603.443-1.91 1.109h-.086v-1.024h-.972v6.552h1.006z"/>
        <g>
            <path d="M0 0H27.456V27.456H0z" transform="translate(13.728 12.012)"/>
            <path fill="#FFF" d="M5.107 2.424l10.81 11.32-10.758 11.42c-.314-.208-.483-.662-.485-1.247L4.576 3.649c-.003-.641.22-1.033.53-1.225zM19.48 9.96L6.337 2.439c-.14-.08-.3-.13-.46-.151L16.365 13.27l3.117-3.309zm.584 7.186l-3.251-3.405 3.248-3.448 4.474 2.559c1.102.63.538 1.419 0 1.728l-4.47 2.566zM6.05 25.168c.091-.036.187-.082.286-.14l13.148-7.547-3.117-3.265L6.05 25.168z" transform="translate(13.728 12.012)"/>
        </g>
    </g>
</svg>
