<svg xmlns="http://www.w3.org/2000/svg" width="53" height="51" viewBox="0 0 53 51">
    <g fill="none" fill-rule="evenodd" transform="translate(.823)">
        <ellipse cx="25.691" cy="25.5" stroke="#E1E4EB" rx="25.191" ry="25"/>
        <path fill="#D9DCE3" d="M33.69 32.715h-3.076v-5.603c0-1.537-.652-2.394-1.82-2.394-1.272 0-2.026.893-2.026 2.394v5.603H23.69V22.308h3.077v1.17s.965-1.763 3.14-1.763c2.176 0 3.783 1.382 3.783 4.242v6.758zm-14.5-13c-.828 0-1.5-.671-1.5-1.5 0-.828.672-1.5 1.5-1.5.83 0 1.5.672 1.5 1.5.001.829-.67 1.5-1.5 1.5zm-1.5 13h3v-10h-3v10z"/>
    </g>
</svg>
