<svg xmlns="http://www.w3.org/2000/svg" width="64" height="64" viewBox="0 0 64 64">
    <g fill="none" fill-rule="evenodd">
        <rect width="64" height="64" fill="#1565D8" opacity=".06" rx="16"/>
        <g>
            <path d="M0 0H40V40H0z" transform="translate(12 12)"/>
            <path fill="#0359FF" d="M5.714 3.333h19.048c1.315 0 2.38 1.066 2.38 2.381v19.048c0 1.315-1.065 2.38-2.38 2.38H5.714c-1.315 0-2.38-1.065-2.38-2.38V5.714c0-1.315 1.065-2.38 2.38-2.38zm27.778 9.524h.794c1.315 0 2.38 1.066 2.38 2.381v19.048c0 1.315-1.065 2.38-2.38 2.38H15.238c-1.315 0-2.38-1.065-2.38-2.38v-.794h16.666c2.191 0 3.968-1.777 3.968-3.968V12.857z" transform="translate(12 12)"/>
            <path fill="#B4CCEF" fill-rule="nonzero" d="M28.73 8.095h.794c1.315 0 2.38 1.066 2.38 2.381v19.048c0 1.315-1.065 2.38-2.38 2.38H10.476c-1.315 0-2.38-1.065-2.38-2.38v-.794h16.666c2.192 0 3.968-1.776 3.968-3.968V8.095z" transform="translate(12 12)"/>
        </g>
    </g>
</svg>
