<svg xmlns="http://www.w3.org/2000/svg" width="52" height="51" viewBox="0 0 52 51">
    <g fill="none" fill-rule="evenodd">
        <ellipse cx="25.691" cy="25.5" stroke="#E1E4EB" rx="25.191" ry="25"/>
        <path fill="#D9DCE3" d="M22.723 32.5c6.037 0 9.34-5.387 9.34-10.058 0-.153 0-.306-.01-.457.642-.5 1.197-1.12 1.638-1.83-.599.286-1.235.474-1.885.557.685-.442 1.197-1.137 1.443-1.956-.645.412-1.35.702-2.085.858-1.243-1.423-3.322-1.492-4.645-.153-.852.863-1.214 2.15-.95 3.378-2.638-.143-5.098-1.486-6.765-3.694-.871 1.616-.425 3.681 1.017 4.719-.522-.017-1.034-.168-1.49-.442v.045c0 1.682 1.102 3.131 2.633 3.464-.483.143-.99.163-1.481.06.43 1.441 1.662 2.428 3.066 2.456-1.162.984-2.598 1.518-4.077 1.516-.26 0-.521-.017-.781-.05 1.501 1.037 3.248 1.587 5.032 1.584"/>
    </g>
</svg>
