<svg xmlns="http://www.w3.org/2000/svg" width="66" height="68" viewBox="0 0 66 68">
    <defs>
        <filter id="prefix__a" width="369.4%" height="369.4%" x="-134.7%" y="-134.7%" filterUnits="objectBoundingBox">
            <feOffset dy="10" in="SourceAlpha" result="shadowOffsetOuter1"/>
            <feGaussianBlur in="shadowOffsetOuter1" result="shadowBlurOuter1" stdDeviation="7.5"/>
            <feColorMatrix in="shadowBlurOuter1" result="shadowMatrixOuter1" values="0 0 0 0 0.0823529412 0 0 0 0 0.145098039 0 0 0 0 0.278431373 0 0 0 0.15 0"/>
            <feMerge>
                <feMergeNode in="shadowMatrixOuter1"/>
                <feMergeNode in="SourceGraphic"/>
            </feMerge>
        </filter>
    </defs>
    <g fill="none" fill-rule="evenodd" transform="translate(9 1)">
        <circle cx="24" cy="24" r="24" stroke="#1565D8" opacity=".2"/>
        <g filter="url(#prefix__a)" transform="translate(6 6)">
            <circle cx="18" cy="18" r="18" fill="#0359FF"/>
            <path fill="#FFF" fill-rule="nonzero" d="M21.73 24v-1.328h-6.109c.136-.552.464-1.055.984-1.508.292-.255.693-.523 1.204-.805l1.07-.593c.943-.526 1.596-.974 1.96-1.344.631-.636.946-1.401.946-2.297 0-.849-.295-1.62-.887-2.313-.59-.692-1.527-1.039-2.808-1.039-1.542 0-2.617.542-3.227 1.625-.343.615-.523 1.41-.539 2.383h1.43c.02-.692.13-1.234.328-1.625.37-.729 1.036-1.094 2-1.094.651 0 1.172.192 1.563.575.39.383.585.9.585 1.55 0 .558-.213 1.053-.64 1.485-.271.276-.742.61-1.414 1l-1.5.867c-1.005.583-1.681 1.232-2.028 1.945-.346.714-.545 1.552-.597 2.516h7.68z"/>
        </g>
    </g>
</svg>
