<svg xmlns="http://www.w3.org/2000/svg" width="64" height="64" viewBox="0 0 64 64">
    <g fill="none" fill-rule="evenodd">
        <rect width="64" height="64" fill="#1565D8" opacity=".06" rx="16"/>
        <g>
            <path d="M0 0H40V40H0z" transform="translate(12 12)"/>
            <path fill="#B4CCEF" fill-rule="nonzero" d="M19.7 32.302l1.142 1.142c.465.465.465 1.219 0 1.684-.465.464-1.219.464-1.684 0l-3.174-3.175c-.465-.465-.465-1.219 0-1.684l3.174-3.174c.465-.465 1.219-.465 1.684 0 .465.465.465 1.218 0 1.683l-1.143 1.143h7.84v2.38H19.7zM32.301 20.3l1.142-1.143c.465-.465 1.219-.465 1.684 0 .464.465.464 1.219 0 1.684l-3.175 3.174c-.233.233-.537.35-.842.35-.305 0-.61-.117-.842-.35l-3.174-3.174c-.465-.465-.465-1.219 0-1.684.465-.465 1.218-.465 1.683 0l1.143 1.143v-7.84h2.38v7.84zM20.3 10.079h-7.84V7.7h7.84l-1.143-1.143c-.465-.465-.465-1.219 0-1.684.465-.464 1.219-.464 1.684 0l3.174 3.175c.465.465.465 1.219 0 1.684l-3.174 3.174c-.465.465-1.219.465-1.684 0-.465-.465-.465-1.218 0-1.683l1.143-1.143zM7.698 19.7l-1.142 1.143c-.465.465-1.219.465-1.684 0-.464-.465-.464-1.219 0-1.684l3.175-3.174c.465-.465 1.219-.465 1.684 0l3.174 3.174c.465.465.465 1.219 0 1.684-.465.465-1.218.465-1.683 0l-1.143-1.143v7.84H7.7V19.7z" transform="translate(12 12)"/>
            <path fill="#0359FF" d="M12.063 25.556c1.315 0 2.381 1.066 2.381 2.38v6.35c0 1.315-1.066 2.38-2.38 2.38h-6.35c-1.315 0-2.38-1.065-2.38-2.38v-6.35c0-1.314 1.065-2.38 2.38-2.38h6.35zm22.223 0c1.315 0 2.38 1.066 2.38 2.38v6.35c0 1.315-1.065 2.38-2.38 2.38h-6.35c-1.314 0-2.38-1.065-2.38-2.38v-6.35c0-1.314 1.066-2.38 2.38-2.38h6.35zM12.063 3.333c1.315 0 2.381 1.066 2.381 2.381v6.35c0 1.314-1.066 2.38-2.38 2.38h-6.35c-1.315 0-2.38-1.066-2.38-2.38v-6.35c0-1.315 1.065-2.38 2.38-2.38h6.35zm22.223 0c1.315 0 2.38 1.066 2.38 2.381v6.35c0 1.314-1.065 2.38-2.38 2.38h-6.35c-1.314 0-2.38-1.066-2.38-2.38v-6.35c0-1.315 1.066-2.38 2.38-2.38h6.35z" transform="translate(12 12)"/>
        </g>
    </g>
</svg>
