<svg xmlns="http://www.w3.org/2000/svg" width="64" height="64" viewBox="0 0 64 64">
    <g fill="none" fill-rule="evenodd">
        <rect width="64" height="64" fill="#1565D8" opacity=".06" rx="16"/>
        <g>
            <path d="M0 0H40V40H0z" transform="translate(12 12)"/>
            <path d="M0 0L40 0 40 40 0 40z" transform="translate(12 12)"/>
            <path fill="#0359FF" d="M36.933 15.783v15.05c0 3.093-2.507 5.6-5.6 5.6h-22.4c-3.092 0-5.6-2.507-5.6-5.6v-15.05c0-.782.383-1.513 1.026-1.96l4.09-2.846c.362-.253.86-.163 1.113.2.253.362.163.86-.2 1.113l-4.09 2.846c-.209.146-.335.382-.339.634.25-.088.52-.136.8-.136.428 0 .849.114 1.217.331l13.183 7.757 13.183-7.757c.636-.374 1.373-.422 2.017-.194-.004-.253-.13-.489-.34-.635l-3.972-2.764c-.362-.253-.452-.751-.2-1.114.253-.363.752-.452 1.114-.2l3.973 2.765c.642.447 1.025 1.178 1.025 1.96z" transform="translate(12 12)"/>
            <path fill="#B8D0F3" d="M28.333 3.333c2.21 0 4 1.791 4 4v8l-12 7.2-12-7.2v-8c0-2.209 1.791-4 4-4h16zm-3.2 11.2h-9.6c-.441 0-.8.359-.8.8 0 .442.359.8.8.8h9.6c.442 0 .8-.358.8-.8 0-.441-.358-.8-.8-.8zm0-4.8h-9.6c-.441 0-.8.359-.8.8 0 .442.359.8.8.8h9.6c.442 0 .8-.358.8-.8 0-.441-.358-.8-.8-.8z" transform="translate(12 12)"/>
        </g>
    </g>
</svg>
