<svg xmlns="http://www.w3.org/2000/svg" width="48" height="48" viewBox="0 0 48 48">
    <defs>
        <linearGradient id="prefix__a" x1="50%" x2="50%" y1="0%" y2="100%">
            <stop offset="0%" stop-color="#F4FAFF"/>
            <stop offset="100%" stop-color="#E5F3FF"/>
        </linearGradient>
    </defs>
    <g fill="none" fill-rule="evenodd">
        <path fill="url(#prefix__a)" d="M17.947 0h12.106c6.24 0 8.503.65 10.785 1.87 2.281 1.22 4.072 3.01 5.292 5.292C47.35 9.444 48 11.707 48 17.947v12.106c0 6.24-.65 8.503-1.87 10.785-1.22 2.281-3.01 4.072-5.292 5.292C38.556 47.35 36.293 48 30.053 48H17.947c-6.24 0-8.503-.65-10.785-1.87-2.281-1.22-4.072-3.01-5.292-5.292C.65 38.556 0 36.293 0 30.053V17.947c0-6.24.65-8.503 1.87-10.785C3.09 4.881 4.88 3.09 7.162 1.87 9.444.65 11.707 0 17.947 0z"/>
        <g stroke-width="2">
            <path stroke="#132240" stroke-linecap="square" d="M9.75 3.75L8.121 5.379c-1.171 1.171-3.07 1.171-4.242 0L3.75 5.25l3.697-3.697c2.071-2.07 5.429-2.07 7.5 0h0c1.718 1.719 2.05 4.385.803 6.472" transform="translate(15.75 16.5)"/>
            <path stroke="#457AE2" stroke-linecap="square" d="M10.7 6.2l2.71 2.71c.878.878.878 2.302 0 3.18l-1.228 1.228c-.844.844-1.988 1.318-3.182 1.318s-2.338-.474-3.182-1.318L1.553 9.053c-2.07-2.071-2.07-5.429 0-7.5h0C2.533.57 3.862.013 5.25 0" transform="translate(15.75 16.5)"/>
            <path stroke="#457AE2" d="M13.043 12.457L10.125 9.539M10.885 14.224L8.162 11.501" transform="translate(15.75 16.5)"/>
        </g>
    </g>
</svg>
