<svg xmlns="http://www.w3.org/2000/svg" width="66" height="68" viewBox="0 0 66 68">
    <defs>
        <filter id="prefix__a" width="369.4%" height="369.4%" x="-134.7%" y="-134.7%" filterUnits="objectBoundingBox">
            <feOffset dy="10" in="SourceAlpha" result="shadowOffsetOuter1"/>
            <feGaussianBlur in="shadowOffsetOuter1" result="shadowBlurOuter1" stdDeviation="7.5"/>
            <feColorMatrix in="shadowBlurOuter1" result="shadowMatrixOuter1" values="0 0 0 0 0.0823529412 0 0 0 0 0.145098039 0 0 0 0 0.278431373 0 0 0 0.15 0"/>
            <feMerge>
                <feMergeNode in="shadowMatrixOuter1"/>
                <feMergeNode in="SourceGraphic"/>
            </feMerge>
        </filter>
    </defs>
    <g fill="none" fill-rule="evenodd" transform="translate(9 1)">
        <circle cx="24" cy="24" r="24" stroke="#1565D8" opacity=".2"/>
        <g filter="url(#prefix__a)" transform="translate(6 6)">
            <circle cx="18" cy="18" r="18" fill="#0359FF"/>
            <path fill="#FFF" fill-rule="nonzero" d="M18.045 24.16c2.256 0 3.932-1.416 3.932-3.32 0-1.476-.875-2.55-2.34-2.795v-.09c1.175-.358 1.908-1.324 1.908-2.637 0-1.648-1.3-3.113-3.454-3.113-2.011 0-3.682 1.238-3.75 3.068h1.364c.05-1.16 1.153-1.841 2.363-1.841 1.284 0 2.114.778 2.114 1.954 0 1.228-.96 2.023-2.341 2.023h-.932v1.25h.932c1.767 0 2.75.898 2.75 2.182 0 1.233-1.074 2.068-2.568 2.068-1.347 0-2.415-.693-2.5-1.818H14.09c.085 1.83 1.699 3.068 3.954 3.068z"/>
        </g>
    </g>
</svg>
