<svg xmlns="http://www.w3.org/2000/svg" width="64" height="64" viewBox="0 0 64 64">
    <g fill="none" fill-rule="evenodd">
        <rect width="64" height="64" fill="#1565D8" opacity=".06" rx="16"/>
        <g>
            <path d="M0 0H40V40H0z" transform="translate(12 12)"/>
            <path fill="#0359FF" d="M12.18 14.992c2.155-3.051 3.5-6.553 4.04-10.517.05-.378.319-.692.687-.805 3.71-1.145 5.82.674 5.784 4.82-.006.805-.044 1.52-.123 2.615-.177 2.444-.163 3.111.112 3.56.263.432 1.12.579 3.146.196.64-.121 1.281-.259 1.992-.423.313-.073 2.572-.622 3.15-.747 1.1-.237 1.891-.337 2.586-.295 1.883.115 2.882 1.324 3.054 3.638.304 4.077-.635 12.265-1.572 15.281-.958 3.082-2.628 4.245-6.636 4.316-2.578.045-6.542.045-11.91 0-1.372-.032-2.614-.297-3.719-.791.31-.64.484-1.357.484-2.115V18.04c0-1.151-.402-2.21-1.074-3.047z" transform="translate(12 12)"/>
            <path fill="#B4CCEF" fill-rule="nonzero" d="M6.31 15.098c-1.644 0-2.977 1.317-2.977 2.941v15.686c0 1.625 1.333 2.942 2.977 2.942h1.984c1.644 0 2.977-1.317 2.977-2.942V18.04c0-1.624-1.333-2.941-2.977-2.941H6.31z" transform="translate(12 12)"/>
        </g>
    </g>
</svg>
